<svg xmlns="http://www.w3.org/2000/svg" xmlns:xlink="http://www.w3.org/1999/xlink" version="1.1" x="0px" y="0px" viewBox="0 0 100 125" enable-background="new 0 0 100 100" xml:space="preserve"><g><path d="M58.5,54.5h-16l8,9.856L58.5,54.5z M50.5,38.3l-8,9.856h16L50.5,38.3z M76.191,49.401   c0-14.192-11.502-25.695-25.692-25.695c-14.189,0-25.69,11.503-25.69,25.695c0,7.566,3.331,14.299,8.54,19.006l3.706-4.082   c-4.047-3.677-6.637-8.925-6.637-14.825c0-11.089,8.99-20.079,20.081-20.079c11.086,0,20.076,8.99,20.076,20.079   c0,5.896-2.585,11.145-6.628,14.82l3.705,4.078C72.859,63.695,76.191,56.963,76.191,49.401 M79.24,49.504   c0,15.869-12.865,28.738-28.74,28.738c-15.873,0-28.736-12.869-28.736-28.738c0-15.877,12.863-28.746,28.736-28.746   C66.375,20.758,79.24,33.627,79.24,49.504 M93.84,49.5c0-23.937-19.4-43.338-43.34-43.338C26.564,6.162,7.16,25.563,7.16,49.5   c0,23.938,19.404,43.343,43.34,43.343C74.439,92.843,93.84,73.438,93.84,49.5 M96.178,49.5c0,25.186-20.49,45.677-45.679,45.677   c-25.186,0-45.676-20.491-45.676-45.677S25.313,3.823,50.499,3.823C75.688,3.823,96.178,24.314,96.178,49.5 M97.5,49.5   c0-25.916-21.085-47-47.001-47S3.5,23.584,3.5,49.5s21.083,47,46.999,47S97.5,75.416,97.5,49.5"/></g><text x="0" y="115" fill="#000000" font-size="5px" font-weight="bold" font-family="'Helvetica Neue', Helvetica, Arial-Unicode, Arial, Sans-serif">Created by Rediffusion</text><text x="0" y="120" fill="#000000" font-size="5px" font-weight="bold" font-family="'Helvetica Neue', Helvetica, Arial-Unicode, Arial, Sans-serif">from the Noun Project</text></svg>