<svg xmlns="http://www.w3.org/2000/svg" xmlns:xlink="http://www.w3.org/1999/xlink" version="1.1" x="0px" y="0px" viewBox="0 0 100 125" enable-background="new 0 0 100 100" xml:space="preserve"><g><path d="M50,80.3c-1.119,0-1.9,0.781-1.9,1.9s0.781,1.9,1.9,1.9s1.9-0.781,1.9-1.9S51.119,80.3,50,80.3z"/><path d="M54.199,80.3c-1.118,0-1.899,0.781-1.899,1.9s0.781,1.9,1.899,1.9c1.119,0,1.9-0.781,1.9-1.9S55.318,80.3,54.199,80.3z"/><path d="M45.8,80.3c-1.118,0-1.899,0.781-1.899,1.9s0.781,1.9,1.899,1.9s1.899-0.781,1.899-1.9S46.918,80.3,45.8,80.3z"/><path d="M54.199,76.101c-1.118,0-1.899,0.781-1.899,1.9c0,1.118,0.781,1.899,1.899,1.899c1.119,0,1.9-0.781,1.9-1.899   C56.1,76.882,55.318,76.101,54.199,76.101z"/><path d="M41.6,76.101c-1.119,0-1.9,0.781-1.9,1.9c0,1.118,0.781,1.899,1.9,1.899s1.9-0.781,1.9-1.899   C43.5,76.882,42.719,76.101,41.6,76.101z"/><path d="M45.8,21.801h8.399c1.119,0,1.9-0.781,1.9-1.9c0-1.118-0.781-1.899-1.9-1.899H45.8c-1.118,0-1.899,0.781-1.899,1.899   C43.9,21.02,44.682,21.801,45.8,21.801z"/><path d="M45.8,76.101c-1.118,0-1.899,0.781-1.899,1.9c0,1.118,0.781,1.899,1.899,1.899s1.899-0.781,1.899-1.899   C47.699,76.882,46.918,76.101,45.8,76.101z"/><path d="M50,29.9c-10.896,0-20.1,9.205-20.1,20.101c0,1.118,0.781,1.899,1.9,1.899s1.9-0.781,1.9-1.899   C33.7,41.165,41.164,33.7,50,33.7c8.987,0,16.3,7.312,16.3,16.301c0,1.118,0.781,1.899,1.899,1.899c1.119,0,1.9-0.781,1.9-1.899   C70.1,38.917,61.083,29.9,50,29.9z"/><path d="M50,24.301c-14.094,0-25.56,11.466-25.56,25.56S35.906,75.421,50,75.421S75.56,63.954,75.56,49.86S64.094,24.301,50,24.301   z M50,71.9c-12.076,0-21.9-9.824-21.9-21.899c0-12.076,9.824-21.9,21.9-21.9c12.075,0,21.899,9.824,21.899,21.9   C71.899,62.076,62.075,71.9,50,71.9z"/><path d="M50,4.7C25.021,4.7,4.7,25.022,4.7,50.001C4.7,74.979,25.021,95.3,50,95.3s45.3-20.321,45.3-45.299   C95.3,25.022,74.979,4.7,50,4.7z M50,91.501c-22.883,0-41.5-18.617-41.5-41.5s18.617-41.5,41.5-41.5   c22.883,0,41.5,18.617,41.5,41.5S72.883,91.501,50,91.501z"/><path d="M57.699,37.601c-1.118,0-1.899,0.781-1.899,1.9c0,1.118,0.781,1.899,1.899,1.899c1.119,0,1.9-0.781,1.9-1.899   C59.6,38.382,58.818,37.601,57.699,37.601z"/><path d="M50,10.301c-21.891,0-39.7,17.81-39.7,39.7S28.109,89.7,50,89.7s39.699-17.809,39.699-39.699S71.891,10.301,50,10.301z    M50,85.9c-19.795,0-35.9-16.104-35.9-35.899c0-19.796,16.104-35.9,35.9-35.9c19.795,0,35.899,16.104,35.899,35.9   C85.899,69.796,69.795,85.9,50,85.9z"/><path d="M58.4,76.101c-1.119,0-1.9,0.781-1.9,1.9c0,1.118,0.781,1.899,1.9,1.899c1.118,0,1.899-0.781,1.899-1.899   C60.3,76.882,59.519,76.101,58.4,76.101z"/><path d="M45.8,45.3h-2.101c-1.118,0-1.899,0.781-1.899,1.9s0.781,1.9,1.899,1.9H45.3v6.5c0,1.119,0.781,1.9,1.899,1.9   c1.119,0,1.9-0.781,1.9-1.9v-7C49.1,46.657,47.743,45.3,45.8,45.3z"/><path d="M54.199,45.3H51.4c-1.119,0-1.9,0.781-1.9,1.9s0.781,1.9,1.9,1.9h2.299v0.4H52.8c-1.943,0-3.3,1.356-3.3,3.299v1.4   c0,1.943,1.356,3.301,3.3,3.301h2.8c1.119,0,1.9-0.781,1.9-1.9s-0.781-1.9-1.9-1.9h-2.3v-0.4h0.899   c1.943,0,3.301-1.356,3.301-3.299v-1.4C57.5,46.657,56.143,45.3,54.199,45.3z"/></g><text x="0" y="115" fill="#000000" font-size="5px" font-weight="bold" font-family="'Helvetica Neue', Helvetica, Arial-Unicode, Arial, Sans-serif">Created by Yorlmar Campos</text><text x="0" y="120" fill="#000000" font-size="5px" font-weight="bold" font-family="'Helvetica Neue', Helvetica, Arial-Unicode, Arial, Sans-serif">from the Noun Project</text></svg>